{"title":"Burke And Hare 2010 XviD BDRip SAFCuk009 {DragonTrG}","uid":6183306,"size":1162515166,"categoryP":"video","categoryS":"movies","magnet":"?xt=urn:btih:e15be46dfe5ce9a4c8f80c5a54cf5b56046002c7&amp;dn=Burke+And+Hare+2010+XviD+BDRip+SAFCuk009+%7BDragonTrG%7D&amp;tr=udp%3A%2F%2Ftracker.openbittorrent.com%3A80&amp;tr=udp%3A%2F%2Fopen.demonii.com%3A1337&amp;tr=udp%3A%2F%2Ftracker.coppersurfer.tk%3A6969&amp;tr=udp%3A%2F%2Fexodus.desync.com%3A6969","seeders":0,"leechers":2,"uploader":"SAFCukO09","files":3,"time":1298029414,"description":"Format : AVI\nFormat/Info : Audio Video Interleave\nFile size : 1.08 GiB\nDuration : 1h 31mn\nOverall bit rate : 1 695 Kbps\nWriting application : AVI-Mux GUI 1.17.8.3, Feb 16 201019:42:50\nWriting library : VirtualDub build 32839/release\n\nVideo\nID : 0\nFormat : MPEG-4 Visual\nFormat profile : Advanced Simple@L5\nFormat settings, BVOP : Yes\nFormat settings, QPel : No\nFormat settings, GMC : No warppoints\nFormat settings, Matrix : Custom\nCodec ID : XVID\nCodec ID/Hint : XviD\nDuration : 1h 31mn\nBit rate : 1 237 Kbps\nWidth : 720 pixels\nHeight : 304 pixels\nDisplay aspect ratio : 2.35:1\nFrame rate : 24.000 fps\nColor space : YUV\nChroma subsampling : 4:2:0\nBit depth : 8 bits\nScan type : Progressive\nBits/(Pixel*Frame) : 0.236\nStream size : 809 MiB (73%)\nWriting library : XviD 1.2.1 (UTC 2008-12-04)\n\nAudio\nID : 1\nFormat : AC-3\nFormat/Info : Audio Coding 3\nMode extension : CM (complete main)\nCodec ID : 2000\nDuration : 1h 31mn\nBit rate mode : Constant\nBit rate : 448 Kbps\nChannel(s) : 3 channels\nChannel positions : Front: L R, Side: C\nSampling rate : 48.0 KHz\nBit depth : 16 bits\nStream size : 293 MiB (26%)\nAlignment : Split accross interleaves\nInterleave, duration : 42 ms (1.00 video frame)\nInterleave, preload duration : 500 ms\n\n\n\n &lt;a href=&quot;\nhttp://www.imdb.com/title/tt1320239/&quot; rel=&quot;nofollow&quot; target=&quot;_NEW&quot;&gt;\nhttp://www.imdb.com/title/tt1320239/&lt;/a&gt;\n\n\n\n\nStoryline\n\nBased on the true story about the famous murderers, 'Burke And Hare' follows the hapless exploits of these two men as they fall into the highly profitable business of providing cadavers for the medical fraternity in Nineteenth Century Edinburgh, then the centre of medical learning. The one thing they were short of was bodies.","torrent":{"xt":"urn:btih:e15be46dfe5ce9a4c8f80c5a54cf5b56046002c7","amp;dn":"Burke+And+Hare+2010+XviD+BDRip+SAFCuk009+%7BDragonTrG%7D","amp;tr":["udp%3A%2F%2Ftracker.openbittorrent.com%3A80","udp%3A%2F%2Fopen.demonii.com%3A1337","udp%3A%2F%2Ftracker.coppersurfer.tk%3A6969","udp%3A%2F%2Fexodus.desync.com%3A6969"],"infoHash":"e15be46dfe5ce9a4c8f80c5a54cf5b56046002c7","infoHashBuffer":{"type":"Buffer","data":[225,91,228,109,254,92,233,164,200,248,12,90,84,207,91,86,4,96,2,199]},"announce":[],"urlList":[]}}